<svg width="96" height="96" viewBox="0 0 96 96" fill="none" xmlns="http://www.w3.org/2000/svg">
<rect width="96" height="96" rx="10" fill="#4C9A89"/>
<path d="M55.5304 24.592C57.1944 27.728 57.5784 31.696 56.6824 36.496H56.5864C54.3464 36.88 51.9464 37.136 49.3864 37.264C46.8264 37.328 44.4264 37.04 42.1864 36.4C42.5704 34.672 42.2184 33.232 41.1304 32.08C40.0424 30.928 38.7304 30.192 37.1944 29.872C35.6584 29.552 34.1544 29.712 32.6824 30.352C31.2744 30.992 30.4424 32.208 30.1864 34C30.0584 34.448 29.9944 34.896 29.9944 35.344C30.0584 35.728 30.1224 36.144 30.1864 36.592C30.6984 38.128 31.5304 39.152 32.6824 39.664C33.8344 40.176 35.0824 40.528 36.4264 40.72C39.8184 41.104 42.9544 42.192 45.8344 43.984C48.7784 45.776 51.1784 48.048 53.0344 50.8C54.1864 52.272 55.0504 53.872 55.6264 55.6C56.2024 57.264 56.5224 58.992 56.5864 60.784C56.7144 62.576 56.5864 64.4 56.2024 66.256C55.8824 68.048 55.3384 69.776 54.5704 71.44C53.8024 73.424 52.7784 75.12 51.4984 76.528C50.2184 77.936 48.7464 79.088 47.0824 79.984C45.4824 80.88 43.7224 81.552 41.8024 82C39.9464 82.384 38.0264 82.544 36.0424 82.48C33.2264 82.416 30.4104 81.936 27.5944 81.04C24.8424 80.08 22.3784 78.768 20.2024 77.104C18.0264 75.44 16.2984 73.424 15.0184 71.056C13.7384 68.624 13.1944 65.872 13.3864 62.8V62.512V62.224C15.6264 61.904 18.0904 61.84 20.7784 62.032C23.4664 62.16 25.8984 62.192 28.0744 62.128C28.2024 64.176 29.0024 65.712 30.4744 66.736C32.0104 67.76 33.6104 68.272 35.2744 68.272C37.0024 68.208 38.4744 67.632 39.6904 66.544C40.9704 65.456 41.4184 63.792 41.0344 61.552C40.8424 60.016 40.2664 58.8 39.3064 57.904C38.3464 56.944 37.1944 56.176 35.8504 55.6C34.5704 55.024 33.1624 54.608 31.6264 54.352C30.0904 54.032 28.6504 53.744 27.3064 53.488C26.0264 53.232 24.8424 52.816 23.7544 52.24C22.6664 51.664 21.6744 50.992 20.7784 50.224C17.8344 47.408 15.9144 44.304 15.0184 40.912C14.1864 37.52 14.1544 34.224 14.9224 31.024C15.6904 27.824 17.1304 24.912 19.2424 22.288C21.4184 19.664 24.0424 17.712 27.1144 16.432C28.6504 15.792 30.3464 15.376 32.2024 15.184C34.0584 14.928 35.9144 14.864 37.7704 14.992C39.6904 15.056 41.5464 15.312 43.3384 15.76C45.1944 16.208 46.8904 16.784 48.4264 17.488C51.4984 19.088 53.8664 21.456 55.5304 24.592ZM71.2121 14.512C72.7481 14.576 74.9561 14.576 77.8361 14.512H80.1401V14.896C80.1401 20.4 80.0441 25.936 79.8521 31.504C79.7241 37.072 79.5961 42.672 79.4681 48.304C79.4041 53.872 79.4041 59.44 79.4681 65.008C79.5321 70.576 79.7241 76.08 80.0441 81.52C79.5321 82.032 78.4441 82.32 76.7801 82.384C75.1801 82.512 73.4201 82.544 71.5001 82.48C69.6441 82.416 67.8521 82.32 66.1241 82.192C64.3961 82.128 63.2121 82.192 62.5721 82.384C63.0201 76.624 63.2121 70.832 63.1481 65.008C63.0841 59.184 62.9561 53.424 62.7641 47.728C62.6361 41.968 62.5401 36.304 62.4761 30.736C62.4761 25.104 62.7641 19.6 63.3401 14.224V14.032C63.6601 13.968 64.2681 14 65.1641 14.128C66.1241 14.192 66.8281 14.224 67.2761 14.224C68.4281 14.288 69.7401 14.384 71.2121 14.512Z" fill="#F7F6F2"/>
</svg>
