<?xml version="1.0" ?><!DOCTYPE svg  PUBLIC '-//W3C//DTD SVG 1.1//EN'  'http://www.w3.org/Graphics/SVG/1.1/DTD/svg11.dtd'><svg height="100%" style="fill-rule:evenodd;clip-rule:evenodd;stroke-linejoin:round;stroke-miterlimit:2;" version="1.1" viewBox="0 0 512 512" width="100%" xml:space="preserve" xmlns="http://www.w3.org/2000/svg" xmlns:serif="http://www.serif.com/" xmlns:xlink="http://www.w3.org/1999/xlink"><path d="M449.446,0c34.525,0 62.554,28.03 62.554,62.554l0,386.892c0,34.524 -28.03,62.554 -62.554,62.554l-386.892,0c-34.524,0 -62.554,-28.03 -62.554,-62.554l0,-386.892c0,-34.524 28.029,-62.554 62.554,-62.554l386.892,0Zm-288.985,423.278l0,-225.717l-75.04,0l0,225.717l75.04,0Zm270.539,0l0,-129.439c0,-69.333 -37.018,-101.586 -86.381,-101.586c-39.804,0 -57.634,21.891 -67.617,37.266l0,-31.958l-75.021,0c0.995,21.181 0,225.717 0,225.717l75.02,0l0,-126.056c0,-6.748 0.486,-13.492 2.474,-18.315c5.414,-13.475 17.767,-27.434 38.494,-27.434c27.135,0 38.007,20.707 38.007,51.037l0,120.768l75.024,0Zm-307.552,-334.556c-25.674,0 -42.448,16.879 -42.448,39.002c0,21.658 16.264,39.002 41.455,39.002l0.484,0c26.165,0 42.452,-17.344 42.452,-39.002c-0.485,-22.092 -16.241,-38.954 -41.943,-39.002Z"/></svg>