<svg id="Capa_1" enable-background="new 0 0 512 512" height="512" viewBox="0 0 512 512" width="512" xmlns="http://www.w3.org/2000/svg"><g><path d="m396 30h101c8.284 0 15-6.716 15-15s-6.716-15-15-15h-101c-8.284 0-15 6.716-15 15s6.716 15 15 15z"/><path d="m396 90h61c8.284 0 15-6.716 15-15s-6.716-15-15-15h-61c-8.284 0-15 6.716-15 15s6.716 15 15 15z"/><path d="m497 271h-101c-8.284 0-15 6.716-15 15s6.716 15 15 15h101c8.284 0 15-6.716 15-15s-6.716-15-15-15z"/><path d="m497 211h-101c-8.284 0-15 6.716-15 15s6.716 15 15 15h101c8.284 0 15-6.716 15-15s-6.716-15-15-15z"/><path d="m497 482h-101c-8.284 0-15 6.716-15 15s6.716 15 15 15h101c8.284 0 15-6.716 15-15s-6.716-15-15-15z"/><path d="m396 452h61c8.284 0 15-6.716 15-15s-6.716-15-15-15h-61c-8.284 0-15 6.716-15 15s6.716 15 15 15z"/><path d="m115.5 140.5c-63.69 0-115.5 51.81-115.5 115.5s51.81 115.5 115.5 115.5 115.5-51.81 115.5-115.5-51.81-115.5-115.5-115.5zm15 115.16c-.03 3.09-1.95 8.12-5.11 11.28l-19.32 16.93c-2.85 2.5-6.37 3.72-9.88 3.72-4.17 0-8.32-1.73-11.29-5.11-5.46-6.23-4.83-15.71 1.4-21.17l14.2-12.45v-33.48c0-8.29 6.72-15 15-15s15 6.71 15 15z"/><path d="m351 45c0-24.81-20.19-45-45-45s-45 20.19-45 45c0 19.552 12.543 36.226 30 42.419v126.162c-17.457 6.193-30 22.867-30 42.419s12.543 36.226 30 42.419v126.162c-17.457 6.193-30 22.867-30 42.419 0 24.81 20.19 45 45 45s45-20.19 45-45c0-19.552-12.543-36.226-30-42.419v-126.162c17.457-6.193 30-22.867 30-42.419s-12.543-36.226-30-42.419v-126.162c17.457-6.193 30-22.867 30-42.419z"/></g></svg>