<svg height="512pt" viewBox="0 -58 512 512" width="512pt" xmlns="http://www.w3.org/2000/svg"><path d="m137.726562 283.894531-18.082031 80.582031h-104.160156c-8.550781 0-15.484375 6.933594-15.484375 15.484376 0 8.550781 6.933594 15.484374 15.484375 15.484374h116.554687c1.160157 0 2.285157-.140624 3.371094-.378906.007813 0 .015625.003906.019532 0l92.675781-20.792968zm0 0"/><path d="m491.242188 120.984375c13.386718-13.382813 20.757812-31.183594 20.757812-50.113281 0-18.929688-7.371094-36.726563-20.753906-50.113282-.003906 0-.003906 0-.003906 0-13.386719-13.386718-31.183594-20.757812-50.113282-20.757812-18.929687 0-36.730468 7.371094-50.113281 20.757812l-4.300781 4.300782 100.226562 100.226562zm0 0"/><path d="m154.695312 257.074219 210.117188-210.117188 100.226562 100.226563-210.113281 210.117187zm0 0"/></svg>