<?xml version="1.0" ?>
<!DOCTYPE svg  PUBLIC '-//W3C//DTD SVG 1.1//EN'  'http://www.w3.org/Graphics/SVG/1.1/DTD/svg11.dtd'>
<svg style="enable-background:new 0 0 500 500;" version="1.1" viewBox="0 0 500 500" xml:space="preserve" xmlns="http://www.w3.org/2000/svg" xmlns:xlink="http://www.w3.org/1999/xlink"><g id="developer-api-coding-screen"><g><circle cx="250" cy="250" r="250" style="fill:#F4F1F0;"/>
<g id="_x33_"><g><path d="M383.377,113.889H116.626c-4.324,0-7.851,3.526-7.851,7.851v157.145v3.689v18.375      c0,4.845,3.526,8.811,7.851,8.811h60.395c2.102-0.83,4.248-1.665,6.443-2.517c4.248-1.649,8.637-3.348,13.015-5.182      c9.92-4.134,15.948-6.863,19.434-8.528l0.1-10.362c-1.54-1.915-3.331-4.688-5.01-8.442H124.55V133.415h250.266v141.314h-85.818      c-1.676,3.755-3.472,6.527-5.002,8.442l0.093,10.362c3.478,1.66,9.499,4.395,19.428,8.528c4.378,1.828,8.772,3.532,13.01,5.176      c2.203,0.857,4.341,1.692,6.456,2.522h60.396c4.318,0,7.845-3.966,7.845-8.811v-18.375v-3.689V121.739      C391.222,117.415,387.695,113.889,383.377,113.889z" style="fill:#2d5c52;"/><path d="M346.463,333.821c-6.033-9.407-26.286-15.25-46.344-23.61c-0.369-0.152-0.711-0.293-1.074-0.451      c-19.119-7.996-23.73-10.802-23.73-10.802l-0.179-19.238c0,0,1.817-1.416,3.944-4.991c2.202-3.694,4.709-9.679,5.902-18.875      c4.688,1.362,9.625-7.006,9.885-11.423c0.261-4.242-0.65-16.032-6.38-14.846c1.172-8.876,2.019-16.849,1.611-21.069      c-1.492-15.457-16.704-31.749-40.099-31.749c-23.396,0-38.609,16.292-40.102,31.749c-0.409,4.221,0.442,12.193,1.614,21.069      c-5.732-1.186-6.644,10.604-6.383,14.846c0.266,4.417,5.194,12.785,9.901,11.423c1.183,9.196,3.694,15.181,5.892,18.875      c2.127,3.575,3.947,4.991,3.947,4.991l-0.185,19.238c0,0-4.617,2.806-23.733,10.802c-0.369,0.158-0.705,0.299-1.079,0.451      c-20.049,8.36-40.305,14.203-46.333,23.61c-5.403,8.421-3.781,37.132-3.781,37.132H250h100.238      C350.238,370.953,351.866,342.242,346.463,333.821z" style="fill:#61b1a1;"/></g><g><polygon points="145.109,165.541 156.353,176.779 145.109,188.023 149.938,192.852 166.013,176.779       149.938,160.71     " style="fill:#675F58;"/><rect height="6.825" style="fill:#2d5c52;" width="20.486" x="174.84" y="169.954"/></g><path d="M368.495,387.039H131.098c0,0-7.465-43.712,0-50.89c37.296-35.867,195.432-32.612,237.397,0     C376.888,342.676,368.495,387.039,368.495,387.039z" style="fill:#2d5c52;"/></g></g></g><g id="Layer_1"/></svg>