<?xml version="1.0" encoding="utf-8"?>
<!-- Svg Vector Icons : http://www.onlinewebfonts.com/icon -->
<!DOCTYPE svg PUBLIC "-//W3C//DTD SVG 1.1//EN" "http://www.w3.org/Graphics/SVG/1.1/DTD/svg11.dtd">
<svg version="1.1" xmlns="http://www.w3.org/2000/svg" xmlns:xlink="http://www.w3.org/1999/xlink" x="0px" y="0px" viewBox="0 0 1000 1000" enable-background="new 0 0 1000 1000" xml:space="preserve">
<metadata> Svg Vector Icons : http://www.onlinewebfonts.com/icon </metadata>
<g><g transform="translate(0.000000,511.000000) scale(0.100000,-0.100000)"><path fill="#4b998a" d="M354.5,4080c-109.1-53.6-185.7-139.7-225.9-250.8c-34.4-99.5-40.2-5635.4-3.8-5750.2c28.7-97.6,132.1-218.2,233.5-271.8l78.5-42.1l1900.8-5.7l1898.9-3.8v-526.4v-526.4h-698.7h-698.7v-306.3v-306.3h2163h2163v306.3v306.3h-698.7h-698.7v526.4v526.4l1900.8,3.8l1898.9,5.7l78.5,42.1c105.3,55.5,208.7,178,235.5,279.5c17.2,59.4,21,815.5,17.2,2905.8l-5.7,2825.4l-57.4,93.8c-40.2,63.2-91.9,114.9-162.7,157l-103.4,61.3H5011.7H454L354.5,4080z M9289.9,942.7v-2574.6H5002.1H714.3V942.7v2574.6h4287.8h4287.8V942.7z"/><path d="M4785.8,1005.8C4579.1,138.7,4403-598.3,4397.3-630.8l-11.5-63.2h220.1H4826l19.1,82.3c55.5,220.1,769.5,3171.8,769.5,3181.4c0,5.7-101.4,9.6-225.9,9.6h-225.9L4785.8,1005.8z"/><path d="M3082.2,1654.8l-1068.1-461.3l5.7-266.1l5.7-266.1l947.5-411.6c520.7-225.9,1005-434.5,1077.7-465.1l128.3-55.5V33.4v304.4l-731.2,289c-403.9,160.8-738.9,296.7-748.4,304.4c-7.7,7.7,126.3,67,296.7,132.1c172.3,63.2,507.3,191.4,748.4,283.3l434.5,166.5v302.5c0,168.4-5.7,304.4-13.4,302.4C4156.1,2118,3669.9,1909.3,3082.2,1654.8z"/><path d="M5825.2,1817.5v-300.5l738.9-287.1c405.8-157,740.8-291,744.6-296.7c3.8-5.7-319.7-139.7-719.7-296.7c-398.2-155.1-733.1-289-744.6-296.7c-13.4-7.7-19.1-116.8-15.3-310.1l5.7-298.6l1071.9,465.1l1072,465.1v264.2v266.1l-1072,463.2c-589.6,256.5-1073.9,465.1-1075.8,465.1C5827.2,2119.9,5825.2,1984,5825.2,1817.5z"/></g></g>
</svg>