<svg id="Layer_1" enable-background="new 0 0 512 512" viewBox="0 0 512 512" xmlns="http://www.w3.org/2000/svg"><g><path d="m203.6982 142.2832c3.2759-8.7356 6.9216-16.4675 10.8777-23.1499-28.1067 8.5225-52.5776 25.4778-70.4563 47.9114 13.5647 5.8428 30.2195 10.4893 48.8357 13.7048 2.804-13.9426 6.4051-26.8992 10.7429-38.4663z"/><path d="m189.0952 204.3627c-22.3708-3.8754-42.4026-9.6842-58.4685-17.088-9.4104 17.0936-15.4221 36.3062-17.1273 56.7253h72.5455c.3814-13.6094 1.4136-26.9028 3.0503-39.6373z"/><path d="m295.2106 183.9688c-2.4974-12.0647-5.6312-23.2668-9.3776-33.2598-8.7183-23.2568-20.1445-37.7036-29.8188-37.7036-9.6865 0-21.1226 14.4478-29.8442 37.7046-3.7471 9.9917-6.8815 21.1929-9.3794 33.2573 12.5861 1.2598 25.7515 1.9243 39.2236 1.9243 13.4621 0 26.6184-.6641 39.1964-1.9228z"/><path d="m212.8673 304.3756c13.8895-1.4659 28.3772-2.2389 43.1469-2.2389 14.7595 0 29.2378.7725 43.1191 2.2373 1.4868-11.6541 2.429-23.8503 2.7979-36.374h-91.8623c.369 12.5245 1.3112 24.7213 2.7984 36.3756z"/><path d="m186.0447 268h-72.5453c1.7059 20.4277 7.7222 39.6477 17.1393 56.7468 16.0648-7.4006 36.0929-13.2075 58.459-17.0817-1.6382-12.7426-2.6714-26.0453-3.053-39.6651z"/><path d="m319.0459 180.751c18.6167-3.2158 35.2729-7.8635 48.8394-13.7078-17.8783-22.437-42.3495-39.3936-70.4563-47.9146 3.9556 6.6838 7.6011 14.4176 10.8767 23.1555 4.3368 11.568 7.9369 24.5245 10.7402 38.4669z"/><path d="m299.1355 207.6541c-13.8818 1.4651-28.361 2.2375-43.1213 2.2375-14.7705 0-29.259-.7731-43.1492-2.2391-1.4856 11.6464-2.4272 23.8335-2.7961 36.3475h91.8623c-.3689-12.5131-1.3104-24.6997-2.7957-36.3459z"/><path d="m216.7942 328.0608c2.4974 12.0581 5.6304 23.2532 9.3757 33.239 8.7202 23.251 20.1563 37.6943 29.8442 37.6943 9.6758 0 21.1016-14.4434 29.8193-37.6934 3.7444-9.9869 6.8768-21.1829 9.3737-33.2415-12.577-1.2585-25.7321-1.9226-39.193-1.9226-13.4706.0001-26.6348.6645-39.2199 1.9242z"/><path d="m411.4619 0h-310.8955c-55.4448 0-100.5522 45.1074-100.5522 100.5518v310.8965c0 55.4443 45.1074 100.5517 100.5522 100.5517h310.8955c55.4292 0 100.5239-45.1074 100.5239-100.5518v-310.8964c0-55.4444-45.0947-100.5518-100.5239-100.5518zm-155.4477 422.9941c-92.0967 0-167.0229-74.9131-167.0229-166.9941s74.9262-166.9946 167.0229-166.9946c92.0811 0 166.9946 74.9136 166.9946 166.9946s-74.9136 166.9941-166.9946 166.9941z"/><path d="m325.9551 244h72.5457c-1.7048-20.4194-7.7157-39.6324-17.1245-56.7263-16.0676 7.4053-36.1003 13.2151-58.4709 17.0906 1.6363 12.7343 2.6683 26.0273 3.0497 39.6357z"/><path d="m308.3057 369.7266c-3.2743 8.7327-6.918 16.4622-10.8718 23.1428 28.0958-8.5186 52.5585-25.4666 70.4342-47.8915-13.5641-5.8411-30.2153-10.4865-48.8254-13.701-2.8028 13.9367-6.402 26.8874-10.737 38.4497z"/><path d="m192.9586 331.2783c-18.6095 3.2144-35.2594 7.8584-48.8219 13.6979 17.8761 22.4216 42.3384 39.368 70.434 47.8885-3.9541-6.6792-7.598-14.407-10.8724-23.1372-4.3362-11.5612-7.9362-24.5119-10.7397-38.4492z"/><path d="m322.9028 307.6636c22.3658 3.8744 42.3948 9.6821 58.4614 17.0842 9.4155-17.0992 15.4309-36.3196 17.1365-56.7478h-72.5455c-.3815 13.6189-1.4144 26.9211-3.0524 39.6636z"/></g></svg>